<svg width="620" height="260" viewBox="0 0 620 260" fill="none" xmlns="http://www.w3.org/2000/svg">
  <rect width="620" height="260" rx="22" fill="#EAF7EF"/>
  <path d="M54 190C130 136 156 211 231 160C297 116 337 177 408 136C462 104 510 122 566 74" stroke="#2E9D61" stroke-width="10" stroke-linecap="round"/>
  <circle cx="54" cy="190" r="13" fill="#14532D"/>
  <circle cx="566" cy="74" r="13" fill="#14532D"/>
  <rect x="76" y="42" width="188" height="58" rx="12" fill="white"/>
  <rect x="99" y="61" width="114" height="12" rx="6" fill="#22C55E"/>
  <rect x="332" y="168" width="216" height="56" rx="12" fill="white"/>
  <rect x="356" y="188" width="162" height="11" rx="5.5" fill="#16A34A"/>
  <circle cx="300" cy="126" r="20" fill="#7BDFA0"/>
  <path d="M300 112V140M286 126H314" stroke="#166534" stroke-width="6" stroke-linecap="round"/>
</svg>
